<?xml version="1.0" encoding="UTF-8" standalone="no"?>
<!-- Created with Inkscape (http://www.inkscape.org/) -->

<svg
   width="18mm"
   height="24mm"
   viewBox="0 0 18 24"
   version="1.1"
   id="svg1"
   inkscape:version="1.3 (0e150ed, 2023-07-21)"
   sodipodi:docname="memorymapper-logo-sm-rgb.svg"
   xmlns:inkscape="http://www.inkscape.org/namespaces/inkscape"
   xmlns:sodipodi="http://sodipodi.sourceforge.net/DTD/sodipodi-0.dtd"
   xmlns="http://www.w3.org/2000/svg"
   xmlns:svg="http://www.w3.org/2000/svg">
  <sodipodi:namedview
     id="namedview1"
     pagecolor="#ffffff"
     bordercolor="#000000"
     borderopacity="0.25"
     inkscape:showpageshadow="2"
     inkscape:pageopacity="0.0"
     inkscape:pagecheckerboard="0"
     inkscape:deskcolor="#d1d1d1"
     inkscape:document-units="mm"
     inkscape:zoom="1.6819304"
     inkscape:cx="177.17737"
     inkscape:cy="46.375284"
     inkscape:window-width="1272"
     inkscape:window-height="755"
     inkscape:window-x="51"
     inkscape:window-y="117"
     inkscape:window-maximized="0"
     inkscape:current-layer="layer1" />
  <defs
     id="defs1" />
  <g
     inkscape:label="Layer 1"
     inkscape:groupmode="layer"
     id="layer1">
    <path
       class="cls-3"
       d="m 4.6096115,7.3932286 a 0.89693749,0.89693749 0 0 1 0.96044,-0.971021 0.96580255,0.96580255 0 1 1 0.0238,1.9314582 0.91281249,0.91281249 0 0 1 -0.98425,-0.9604372 z"
       id="path4"
       style="fill:#15b7d0;stroke-width:0.264583" />
    <path
       class="cls-4"
       d="m 14.020842,5.2818536 a 0.96572915,0.96572915 0 1 1 -0.98954,-0.955146 0.97366665,0.97366665 0 0 1 0.98954,0.955146 z"
       id="path5"
       style="fill:#14b7d0;stroke-width:0.264583" />
    <path
       class="cls-3"
       d="m 12.404232,6.4222076 a 0.96043749,0.96043749 0 1 1 0,1.9182292 0.96308332,0.96308332 0 0 1 -0.93398,-0.9207502 0.94985415,0.94985415 0 0 1 0.93398,-0.997479 z"
       id="path10"
       style="fill:#15b7d0;stroke-width:0.264583" />
    <path
       class="cls-2"
       d="m 6.2553215,4.3267076 a 0.99747915,0.99747915 0 0 1 0.90223,1.023938 0.94720832,0.94720832 0 0 1 -0.96309,0.889 0.97102082,0.97102082 0 0 1 -0.92075,-0.941917 0.99483332,0.99483332 0 0 1 0.98161,-0.971021 z"
       id="path12"
       style="fill:#16b7d0;stroke-width:0.264583" />
    <path
       class="cls-3"
       d="m 12.978382,10.113146 c 0,-0.5715002 0.29104,-0.8704802 0.85196,-0.8784172 a 0.91016666,0.91016666 0 0 1 0.87841,0.9022292 0.88106249,0.88106249 0 0 1 -0.87841,0.849313 c -0.54769,0.0079 -0.85196,-0.293688 -0.85196,-0.873125 z"
       id="path50"
       style="fill:#15b7d0;stroke-width:0.264583" />
    <path
       class="cls-2"
       d="m 12.637072,9.4807908 a 0.86783332,0.86783332 0 1 1 -1.73302,0 0.86783332,0.86783332 0 1 1 1.73302,0 z"
       id="path54"
       style="fill:#16b7d0;stroke-width:0.264583" />
    <path
       class="cls-3"
       d="m 13.637192,8.0282288 c -0.0952,-0.4683132 0.35984,-0.8387292 0.8255,-0.8731252 0.46567,-0.0344 0.84667,0.346604 0.84138,0.8942922 -0.005,0.547687 -0.2884,0.849312 -0.82021,0.851958 -0.53181,0.0026 -0.84931,-0.293688 -0.84667,-0.873125 z"
       id="path66"
       style="fill:#15b7d0;stroke-width:0.264583" />
    <path
       class="cls-7"
       d="m 13.830342,16.341438 a 0.76199999,0.76199999 0 0 1 0.83344,0.80698 0.82285416,0.82285416 0 0 1 -0.84932,0.86254 0.79374999,0.79374999 0 0 1 -0.82021,-0.87577 0.74083332,0.74083332 0 0 1 0.83609,-0.79375 z"
       id="path109"
       style="fill:#b04b96;stroke-width:0.264583" />
    <path
       class="cls-5"
       d="m 4.9006515,15.703788 c 0.56356,0 0.84138,0.26459 0.83873,0.82286 a 0.76464582,0.76464582 0 0 1 -0.84138,0.84666 0.86254166,0.86254166 0 0 1 -0.8255,-0.8546 0.76993749,0.76993749 0 0 1 0.82815,-0.81492 z"
       id="path110"
       style="fill:#b04c96;stroke-width:0.264583" />
    <path
       class="cls-3"
       d="m 7.6523215,7.2318326 a 0.73554166,0.73554166 0 0 1 0.81491,0.7937502 0.82814582,0.82814582 0 0 1 -0.80698,0.854604 0.81756249,0.81756249 0 0 1 -0.85195,-0.844021 c 0,-0.5423952 0.27516,-0.8069792 0.84402,-0.8043332 z"
       id="path112"
       style="fill:#15b7d0;stroke-width:0.264583" />
    <path
       class="cls-6"
       d="m 4.1227815,5.4538326 c -0.52917,0 -0.78053,-0.280458 -0.77523,-0.833437 a 0.74877082,0.74877082 0 0 1 0.80962,-0.820209 0.79374999,0.79374999 0 0 1 0.79375,0.859896 0.73818749,0.73818749 0 0 1 -0.82814,0.79375 z"
       id="path125"
       style="fill:#16b7d1;stroke-width:0.264583" />
    <path
       class="cls-5"
       d="m 15.401962,15.063498 c 0,0.52917 -0.2831,0.84667 -0.77787,0.85196 a 0.74877082,0.74877082 0 0 1 -0.80963,-0.82021 c 0,-0.52917 0.29104,-0.84667 0.79375,-0.84667 a 0.74083332,0.74083332 0 0 1 0.79375,0.81492 z"
       id="path132"
       style="fill:#b04c96;stroke-width:0.264583" />
    <path
       class="cls-5"
       d="m 4.9191715,11.568354 a 0.71172916,0.71172916 0 0 1 -0.76464,0.79375 0.73024999,0.73024999 0 0 1 -0.81228,-0.809625 0.75406249,0.75406249 0 0 1 0.79375,-0.836083 c 0.52653,0.01587 0.78582,0.301625 0.78317,0.851958 z"
       id="path144"
       style="fill:#b04c96;stroke-width:0.264583" />
    <path
       class="cls-2"
       d="m 10.475422,8.8299158 a 0.72495832,0.72495832 0 0 1 -0.8122703,0.79375 c -0.50535,0 -0.7699402,-0.306916 -0.762,-0.849312 a 0.75406249,0.75406249 0 0 1 0.79375,-0.79375 c 0.4868303,0.01588 0.7858103,0.322792 0.7805203,0.849312 z"
       id="path145"
       style="fill:#16b7d0;stroke-width:0.264583" />
    <path
       class="cls-6"
       d="m 8.2582115,11.147666 c -0.15875,-0.478895 -0.0132,-0.859895 0.39952,-1.045104 a 0.93397915,0.93397915 0 0 1 1.1244802,0.264584 0.91545832,0.91545832 0 0 1 -0.26458,1.259416 1.7171458,1.7171458 0 0 1 -1.2594202,-0.478896 z"
       id="path148"
       style="fill:#16b7d1;stroke-width:0.264583" />
    <path
       class="cls-7"
       d="m 4.9191715,18.619498 a 0.71437499,0.71437499 0 0 1 -0.78052,0.79375 0.75141666,0.75141666 0 0 1 -0.79375,-0.79375 0.76464582,0.76464582 0 0 1 0.81756,-0.81756 0.73289582,0.73289582 0 0 1 0.75671,0.81756 z"
       id="path169"
       style="fill:#b04b96;stroke-width:0.264583" />
    <path
       class="cls-5"
       d="m 4.7974615,14.431148 c 0,-0.50271 0.2884,-0.81492 0.75142,-0.81757 a 0.86254166,0.86254166 0 0 1 0.82815,0.79375 0.84137499,0.84137499 0 0 1 -0.78053,0.83609 c -0.508,0.0132 -0.79904,-0.28311 -0.79904,-0.81227 z"
       id="path175"
       style="fill:#b04c96;stroke-width:0.264583" />
    <path
       class="cls-6"
       d="m 10.359002,11.520729 a 0.67733332,0.67733332 0 0 1 0.7673,-0.73025 0.71172916,0.71172916 0 0 1 0.77523,0.79375 0.79374999,0.79374999 0 0 1 -0.85196,0.762 c -0.42334,-0.01058 -0.6985,-0.336021 -0.69057,-0.8255 z"
       id="path184"
       style="fill:#16b7d1;stroke-width:0.264583" />
    <path
       class="cls-7"
       d="m 6.1997515,13.092358 a 0.748773,0.748773 0 1 1 0,-1.497546 0.75406249,0.75406249 0 0 1 0.81228,0.724959 0.77522916,0.77522916 0 0 1 -0.81228,0.772587 z"
       id="path202"
       style="fill:#b04b96;stroke-width:0.264583" />
    <path
       class="cls-8"
       d="m 15.267032,6.7158956 a 0.79374999,0.79374999 0 0 1 -0.78053,-0.772584 0.76729166,0.76729166 0 0 1 0.77788,-0.772583 0.7725835,0.7725835 0 0 1 0,1.545167 z"
       id="path203"
       style="fill:#17b7d1;stroke-width:0.264583" />
    <path
       class="cls-7"
       d="m 12.449212,19.254498 a 0.67468749,0.67468749 0 0 1 0.68527,-0.7276 0.74612499,0.74612499 0 1 1 -0.68527,0.7276 z"
       id="path226"
       style="fill:#b04b96;stroke-width:0.264583" />
    <path
       class="cls-6"
       d="m 12.462442,12.528788 a 0.70114582,0.70114582 0 0 1 0.19579,-0.960434 0.98424999,0.98424999 0 0 1 1.09802,0.03175 c 0.29105,0.248708 0.3175,0.664104 0.0714,1.105954 a 1.5266458,1.5266458 0 0 1 -1.36525,-0.17727 z"
       id="path235"
       style="fill:#16b7d1;stroke-width:0.264583" />
    <path
       class="cls-8"
       d="m 3.3793015,7.4434996 a 0.68527082,0.68527082 0 0 1 -0.74348,-0.724959 0.72760416,0.72760416 0 0 1 0.71702,-0.727604 0.71437499,0.71437499 0 0 1 0.74348,0.743479 0.69585416,0.69585416 0 0 1 -0.71702,0.709084 z"
       id="path236"
       style="fill:#17b7d1;stroke-width:0.264583" />
    <path
       class="cls-5"
       d="m 2.7972115,13.761748 c 0,-0.48948 0.23813,-0.70908 0.73554,-0.6985 a 0.68262499,0.68262499 0 0 1 0.71438,0.67204 0.71172916,0.71172916 0 0 1 -0.7329,0.75142 c -0.49212,0.003 -0.72231,-0.23019 -0.71702,-0.72496 z"
       id="path252"
       style="fill:#b04c96;stroke-width:0.264583" />
    <path
       class="cls-5"
       d="m 12.541822,13.610938 a 0.63235416,0.63235416 0 0 1 0.70114,0.65617 0.67468749,0.67468749 0 0 1 -0.73025,0.73818 0.70908332,0.70908332 0 0 1 -0.69585,-0.69585 0.70114582,0.70114582 0 0 1 0.72496,-0.6985 z"
       id="path268"
       style="fill:#b04c96;stroke-width:0.264583" />
    <path
       class="cls-18"
       d="m 3.9825515,9.3193958 a 0.63764583,0.63764583 0 0 1 0.52916,-0.687917 c 0.33602,-0.08996 0.70909,-0.0926 0.94457,0.235479 a 0.86783332,0.86783332 0 0 1 0.0212,1.119188 c -0.56885,-0.07408 -1.10331,-0.214313 -1.49489,-0.66675 z"
       id="path269"
       style="fill:#15b7d1;stroke-width:0.264583" />
    <path
       class="cls-6"
       d="m 6.0780515,10.232208 a 0.58472916,0.58472916 0 0 1 0.3757,-0.7170212 0.82285416,0.82285416 0 0 1 0.8943,0.04498 0.79374999,0.79374999 0 0 1 0.33866,0.7778752 0.65616666,0.65616666 0 0 1 -0.22489,0.470959 2.1801666,2.1801666 0 0 1 -1.38377,-0.576793 z"
       id="path275"
       style="fill:#16b7d1;stroke-width:0.264583" />
    <path
       class="cls-2"
       d="m 14.475922,3.0593536 c 0,0.478896 -0.2196,0.73025 -0.66146,0.727604 -0.44185,-0.0026 -0.63764,-0.264583 -0.63764,-0.709083 a 0.67733332,0.67733332 0 0 1 0.63764,-0.724959 0.66674999,0.66674999 0 0 1 0.66146,0.706438 z"
       id="path282"
       style="fill:#16b7d0;stroke-width:0.264583" />
    <path
       class="cls-12"
       d="m 10.332552,7.2635826 a 0.60589583,0.60589583 0 0 1 -0.6561703,-0.677333 0.64029166,0.64029166 0 0 1 0.6879203,-0.66675 0.65881249,0.65881249 0 0 1 0.64293,0.674687 0.61912499,0.61912499 0 0 1 -0.67468,0.669396 z"
       id="path307"
       style="fill:#18b7d1;stroke-width:0.264583" />
    <path
       class="cls-5"
       d="m 15.224692,20.558898 a 0.65352083,0.65352083 0 1 1 0.69056,-0.62442 0.65881249,0.65881249 0 0 1 -0.69056,0.62442 z"
       id="path326"
       style="fill:#b04c96;stroke-width:0.264583" />
    <path
       class="cls-5"
       d="m 8.3111315,12.335646 a 0.65393445,0.65393445 0 1 1 -0.0952,1.304392 0.61647916,0.61647916 0 0 1 -0.59531,-0.6985 0.60854166,0.60854166 0 0 1 0.69056,-0.605892 z"
       id="path329"
       style="fill:#b04c96;stroke-width:0.264583" />
    <path
       class="cls-8"
       d="m 8.2820315,5.3268326 a 0.58472916,0.58472916 0 0 1 0.6402902,0.642938 0.67997916,0.67997916 0 0 1 -0.6376502,0.637645 0.65881249,0.65881249 0 0 1 -0.65617,-0.658812 0.57414583,0.57414583 0 0 1 0.65353,-0.621771 z"
       id="path335"
       style="fill:#17b7d1;stroke-width:0.264583" />
    <path
       class="cls-19"
       d="m 6.3638015,18.619498 a 0.6418455,0.6418455 0 0 1 -0.0344,1.28323 0.62706249,0.62706249 0 0 1 -0.61912,-0.68792 0.59266666,0.59266666 0 0 1 0.65352,-0.59531 z"
       id="path347"
       style="fill:#b04c97;stroke-width:0.264583" />
    <path
       class="cls-12"
       d="m 6.8929615,2.5989786 a 0.61383333,0.61383333 0 0 1 0.56886,0.635 0.57149999,0.57149999 0 0 1 -0.65882,0.574146 0.52916666,0.52916666 0 0 1 -0.54239,-0.629709 0.56885416,0.56885416 0 0 1 0.63235,-0.579437 z"
       id="path366"
       style="fill:#18b7d1;stroke-width:0.264583" />
    <path
       class="cls-23"
       d="m 11.562862,4.5357286 c 0.0397,0.396875 -0.20373,0.550333 -0.56886,0.568854 a 0.57149999,0.57149999 0 0 1 -0.61647,-0.576792 0.62706249,0.62706249 0 0 1 0.6297,-0.635 c 0.3519,0.0079 0.55563,0.23548 0.55563,0.642938 z"
       id="path370"
       style="fill:#1bb8d1;stroke-width:0.264583" />
    <path
       class="cls-5"
       d="m 2.7310715,16.463148 a 0.52916666,0.52916666 0 0 1 -0.48154,-0.58738 0.57149999,0.57149999 0 0 1 0.61118,-0.62177 0.58737499,0.58737499 0 0 1 0.59267,0.59531 c 0.0159,0.37307 -0.23283,0.61384 -0.72231,0.61384 z"
       id="path371"
       style="fill:#b04c96;stroke-width:0.264583" />
    <path
       class="cls-13"
       d="m 16.478822,10.779896 a 0.52916666,0.52916666 0 0 1 -0.59002,0.579437 0.54768749,0.54768749 0 0 1 -0.59002,-0.597958 0.61118749,0.61118749 0 0 1 0.59002,-0.605896 0.58472916,0.58472916 0 0 1 0.59002,0.624417 z"
       id="path377"
       style="fill:#18b8d1;stroke-width:0.264583" />
    <path
       class="cls-23"
       d="m 5.3716115,2.5381246 a 0.5878054,0.5878054 0 0 1 -1.17475,0.04498 0.56885416,0.56885416 0 0 1 0.56356,-0.621771 0.56356249,0.56356249 0 0 1 0.61119,0.576791 z"
       id="path385"
       style="fill:#1bb8d1;stroke-width:0.264583" />
    <path
       class="cls-19"
       d="m 3.5115915,21.289148 a 0.60060416,0.60060416 0 0 1 -0.58738,-0.64294 0.61118749,0.61118749 0 0 1 0.55827,-0.55827 0.65352083,0.65352083 0 0 1 0.61119,0.66146 0.59002083,0.59002083 0 0 1 -0.58208,0.53975 z"
       id="path392"
       style="fill:#b04c97;stroke-width:0.264583" />
    <path
       class="cls-5"
       d="m 16.582002,17.706688 c 0,0.48154 -0.1852,0.67204 -0.56091,0.66675 a 0.50535416,0.50535416 0 0 1 -0.56356,-0.55827 0.51329166,0.51329166 0 0 1 0.56885,-0.55827 0.48683333,0.48683333 0 0 1 0.55562,0.44979 z"
       id="path408"
       style="fill:#b04c96;stroke-width:0.264583" />
    <path
       class="cls-5"
       d="m 15.820002,13.520978 a 0.81227082,0.81227082 0 0 1 -0.96572,0.11113 c -0.33603,-0.18786 -0.34396,-0.50271 -0.29105,-0.8308 a 1.7647708,1.7647708 0 0 1 1.34938,0.15611 0.45508333,0.45508333 0 0 1 -0.0926,0.56356 z"
       id="path413"
       style="fill:#b04c96;stroke-width:0.264583" />
    <path
       class="cls-19"
       d="m 10.245232,14.185078 c -0.23812,-0.0159 -0.4233303,-0.1852 -0.4365603,-0.52916 a 0.52916666,0.52916666 0 0 1 0.5503303,-0.56886 0.54768749,0.54768749 0 0 1 0.52917,0.56886 c 0.0185,0.32014 -0.2196,0.52916 -0.64294,0.52916 z"
       id="path430"
       style="fill:#b04c97;stroke-width:0.264583" />
    <path
       class="cls-19"
       d="m 5.6758815,20.807608 a 0.48683333,0.48683333 0 0 1 0.41804,0.52916 0.47360416,0.47360416 0 0 1 -0.55827,0.49742 0.46037499,0.46037499 0 0 1 -0.49477,-0.49742 c 0,-0.31221 0.15346,-0.54504 0.635,-0.52916 z"
       id="path450"
       style="fill:#b04c97;stroke-width:0.264583" />
    <path
       class="cls-5"
       d="m 3.9825515,9.3193958 1.49489,0.66675 c -0.33337,0.3995202 -0.74612,0.5106452 -1.12977,0.2645832 -0.32279,-0.214313 -0.59531,-0.4815422 -0.36512,-0.9313332 z"
       id="path452"
       style="fill:#b04c96;stroke-width:0.264583" />
    <path
       class="cls-24"
       d="m 16.391502,3.8531036 a 0.45243749,0.45243749 0 0 1 -0.5027,0.529167 0.48154166,0.48154166 0 0 1 -0.52917,-0.508 0.48947916,0.48947916 0 0 1 0.52917,-0.545042 0.44714583,0.44714583 0 0 1 0.5027,0.523875 z"
       id="path454"
       style="fill:#1cb8d1;stroke-width:0.264583" />
    <path
       class="cls-34"
       d="m 6.9776315,17.677578 a 0.46566666,0.46566666 0 0 1 -0.51329,-0.5027 0.49477083,0.49477083 0 0 1 0.52916,-0.54769 0.50270833,0.50270833 0 0 1 0.52917,0.55827 0.48683333,0.48683333 0 0 1 -0.54504,0.49212 z"
       id="path456"
       style="fill:#b14d97;stroke-width:0.264583" />
    <path
       class="cls-27"
       d="m 11.734842,17.039938 c -0.28311,-0.0318 -0.4789,-0.15611 -0.47361,-0.508 0.005,-0.3519 0.18786,-0.55033 0.52917,-0.52917 a 0.5295925,0.5295925 0 1 1 -0.0423,1.05834 z"
       id="path460"
       style="fill:#b04d97;stroke-width:0.264583" />
    <path
       class="cls-42"
       d="m 15.912612,12.983878 -1.34673,-0.18257 a 0.65087499,0.65087499 0 0 1 0.75671,-0.529162 0.61912499,0.61912499 0 0 1 0.62706,0.635002 c 0.0185,0.0344 0.008,0.0609 -0.037,0.0767 z"
       id="path502"
       style="fill:#1ab7d1;stroke-width:0.264583" />
    <path
       class="cls-43"
       d="m 16.092532,8.7399578 c 0,-0.309562 0.11906,-0.47625 0.42068,-0.500062 a 0.40216666,0.40216666 0 0 1 0.4789,0.420687 0.42333333,0.42333333 0 0 1 -0.42863,0.484188 c -0.26193,0.0026 -0.4736,-0.10848 -0.47095,-0.404813 z"
       id="path510"
       style="fill:#22b8d1;stroke-width:0.264583" />
    <path
       class="cls-5"
       d="m 6.0780515,10.232208 1.38641,0.576792 c -0.28046,0.396875 -0.66675,0.354541 -1.02658,0.1905 a 0.57149999,0.57149999 0 0 1 -0.35983,-0.767292 z"
       id="path511"
       style="fill:#b04c96;stroke-width:0.264583" />
    <path
       class="cls-34"
       d="m 12.081442,21.349998 a 0.41010416,0.41010416 0 0 1 0.4445,-0.45508 0.40481249,0.40481249 0 0 1 0.45244,0.44714 0.42597916,0.42597916 0 0 1 -0.43656,0.47625 0.45772916,0.45772916 0 0 1 -0.46038,-0.46831 z"
       id="path519"
       style="fill:#b14d97;stroke-width:0.264583" />
    <path
       class="cls-29"
       d="m 12.203152,2.4058326 a 0.41010416,0.41010416 0 0 1 -0.47625,0.457729 c -0.26458,0 -0.381,-0.1905 -0.37042,-0.463021 0.0106,-0.27252 0.14817,-0.441854 0.41275,-0.428625 a 0.40216666,0.40216666 0 0 1 0.43392,0.433917 z"
       id="path529"
       style="fill:#1eb8d1;stroke-width:0.264583" />
    <path
       class="cls-19"
       d="m 16.682552,15.320148 c 0.24606,0.0265 0.43391,0.13493 0.42598,0.41804 a 0.44979166,0.44979166 0 0 1 -0.89694,0 0.39158333,0.39158333 0 0 1 0.47096,-0.41804 z"
       id="path539"
       style="fill:#b04c97;stroke-width:0.264583" />
    <path
       class="cls-47"
       d="m 2.0246315,18.376078 c -0.23019,0 -0.36513,-0.16404 -0.37306,-0.4101 a 0.37570833,0.37570833 0 0 1 0.39423,-0.4445 0.40745833,0.40745833 0 0 1 0.46302,0.43127 c 0,0.254 -0.15346,0.41804 -0.48419,0.42333 z"
       id="path544"
       style="fill:#b14f98;stroke-width:0.264583" />
    <path
       class="cls-48"
       d="m 2.4982315,10.959812 a 0.41274999,0.41274999 0 0 1 -0.41275,0.394229 c -0.29898,0 -0.43391,-0.206375 -0.43127,-0.470958 a 0.39952083,0.39952083 0 0 1 0.43657,-0.420687 c 0.25929,0.0053 0.40481,0.179916 0.40745,0.497416 z"
       id="path545"
       style="fill:#b14e97;stroke-width:0.264583" />
    <path
       class="cls-27"
       d="m 8.0624215,15.105828 a 0.42921514,0.42921514 0 1 1 -0.85725,-0.045 0.39952083,0.39952083 0 0 1 0.43656,-0.41805 c 0.254,0.008 0.40217,0.17727 0.42069,0.46302 z"
       id="path549"
       style="fill:#b04d97;stroke-width:0.264583" />
    <path
       class="cls-48"
       d="m 15.026252,21.984998 c 0,0.30956 -0.15875,0.40746 -0.42333,0.40746 -0.26458,0 -0.42069,-0.0926 -0.42862,-0.39158 -0.008,-0.29898 0.19314,-0.43392 0.44979,-0.42863 0.25664,0.005 0.43127,0.13494 0.40216,0.41275 z"
       id="path550"
       style="fill:#b14e97;stroke-width:0.264583" />
    <path
       class="cls-23"
       d="m 2.2442315,8.6050208 c 0.0979,-0.407459 0.4154,-0.441855 0.6985,-0.3175 a 0.46037499,0.46037499 0 0 1 0.24607,0.727604 c -0.38365,0.03969 -0.73025,-0.03969 -0.94457,-0.410104 z"
       id="path568"
       style="fill:#1bb8d1;stroke-width:0.264583" />
    <path
       class="cls-27"
       d="m 2.2442315,8.6050208 a 4.3656249,4.3656249 0 0 0 0.94457,0.410104 c -0.0556,0.418041 -0.33867,0.431271 -0.65088,0.346604 -0.36512,-0.0979 -0.44185,-0.306917 -0.29369,-0.756708 z"
       id="path574"
       style="fill:#b04d97;stroke-width:0.264583" />
    <path
       class="cls-7"
       d="m 12.462442,12.528788 1.36525,0.17727 c -0.19844,0.4154 -0.58208,0.30957 -0.90487,0.28311 a 0.45772916,0.45772916 0 0 1 -0.46038,-0.46038 z"
       id="path596"
       style="fill:#b04b96;stroke-width:0.264583" />
    <path
       class="cls-59"
       d="m 11.126302,18.251728 a 0.33602083,0.33602083 0 0 1 0.33602,0.39158 c 0,0.23019 -0.16669,0.30427 -0.36513,0.30427 a 0.30427083,0.30427083 0 0 1 -0.33866,-0.33602 c 0.0185,-0.21431 0.11906,-0.37835 0.36777,-0.35983 z"
       id="path602"
       style="fill:#b25099;stroke-width:0.264583" />
    <path
       class="cls-5"
       d="m 8.2582115,11.147666 1.2805902,0.492125 c -0.63765,0.343959 -1.1879802,0.132292 -1.2805902,-0.492125 z"
       id="path607"
       style="fill:#b04c96;stroke-width:0.264583" />
    <path
       class="cls-63"
       d="m 8.9461317,4.1732496 c -0.2249002,0 -0.3545402,-0.108479 -0.3571902,-0.293688 a 0.333375,0.333375 0 1 1 0.6641102,-0.04233 0.31220833,0.31220833 0 0 1 -0.30692,0.336021 z"
       id="path618"
       style="fill:#2cb9d2;stroke-width:0.264583" />
    <path
       class="cls-14"
       d="m 2.2733415,4.0277286 a 0.31485416,0.31485416 0 0 1 -0.33073,0.309562 0.32279166,0.32279166 0 0 1 -0.32279,-0.362479 0.29104166,0.29104166 0 0 1 0.31221,-0.312208 c 0.19843,-0.0053 0.34395,0.100542 0.34131,0.365125 z"
       id="path622"
       style="fill:#19b8d1;stroke-width:0.264583" />
    <path
       class="cls-27"
       d="m 1.7309415,13.002398 c -0.0238,0.17991 -0.10848,0.26458 -0.29369,0.26458 a 0.24870833,0.24870833 0 0 1 -0.26458,-0.26458 c 0,-0.20638 0.10054,-0.30692 0.30427,-0.29369 0.20373,0.0132 0.23284,0.13758 0.254,0.29369 z"
       id="path669"
       style="fill:#b04d97;stroke-width:0.264583" />
    <path
       class="cls-85"
       d="m 2.9877115,1.7496656 a 0.26458333,0.26458333 0 0 1 -0.24871,0.264584 0.238125,0.238125 0 0 1 -0.26458,-0.235479 0.24870833,0.24870833 0 0 1 0.24077,-0.264584 c 0.15081,-0.01323 0.23813,0.08202 0.27252,0.235479 z"
       id="path696"
       style="fill:#36bbd3;stroke-width:0.264583" />
    <path
       class="cls-88"
       d="m 1.3367115,5.8533536 a 0.206375,0.206375 0 0 1 0.20638,0.235479 0.22225,0.22225 0 0 1 -0.21961,0.238125 0.21960416,0.21960416 0 0 1 -0.26458,-0.243417 c 0.0132,-0.150812 0.0873,-0.219604 0.27781,-0.230187 z"
       id="path711"
       style="fill:#31bad3;stroke-width:0.264583" />
    <path
       class="cls-91"
       d="m 14.528842,0.74954061 a 0.23283333,0.23283333 0 0 1 0.19844,0.243417 0.22489583,0.22489583 0 0 1 -0.21432,0.24606299 c -0.16933,0.01852 -0.23283,-0.0979 -0.24341,-0.24870899 -0.0106,-0.150812 0.0476,-0.230187 0.25929,-0.240771 z"
       id="path721"
       style="fill:#33bad2;stroke-width:0.264583" />
    <path
       class="cls-5"
       d="m 1.6436315,20.013858 c 0,0.13758 -0.0476,0.24077 -0.19315,0.26458 a 0.22225,0.22225 0 0 1 -0.26458,-0.22754 0.24341666,0.24341666 0 0 1 0.22754,-0.23813 c 0.14023,-0.0185 0.21431,0.0609 0.23019,0.20109 z"
       id="path726"
       style="fill:#b04c96;stroke-width:0.264583" />
    <path
       class="cls-97"
       d="m 3.0909015,22.749648 a 0.26458333,0.26458333 0 0 1 -0.2249,0.26458 0.2143125,0.2143125 0 0 1 -0.23812,-0.20902 c -0.0212,-0.14552 0.0794,-0.2196 0.20637,-0.23283 0.127,-0.0132 0.20638,0.0767 0.25665,0.17727 z"
       id="path732"
       style="fill:#b3559b;stroke-width:0.264583" />
    <path
       class="cls-83"
       d="m 16.727532,1.7867076 a 0.19579166,0.19579166 0 0 1 -0.20373,0.182563 c -0.11113,0 -0.14817,-0.07937 -0.15082,-0.177271 -0.003,-0.0979 0.0582,-0.198438 0.18786,-0.185209 a 0.17991666,0.17991666 0 0 1 0.16669,0.179917 z"
       id="path763"
       style="fill:#34bad3;stroke-width:0.264583" />
    <path
       class="cls-112"
       d="m 9.9118617,15.701148 a 0.21166666,0.21166666 0 0 1 -0.19315,0.20637 0.14552083,0.14552083 0 0 1 -0.17727,-0.15081 c 0,-0.11642 0.045,-0.21167 0.17463,-0.20902 a 0.206375,0.206375 0 0 1 0.19579,0.15346 z"
       id="path768"
       style="fill:#b3559c;stroke-width:0.264583" />
    <path
       class="cls-116"
       d="m 15.912612,12.983878 c 0,-0.0265 0.0238,-0.0556 0.0344,-0.0847 0.0873,0.23283 0.13759,0.46037 -0.127,0.62177 a 1.1668125,1.1668125 0 0 0 0.0926,-0.5371 z"
       id="path781"
       style="fill:#d2a4cc;stroke-width:0.264583" />
  </g>
</svg>
